<?xml version="1.0" encoding="UTF-8"?><svg id="Layer_1" xmlns="http://www.w3.org/2000/svg" viewBox="0 0 512 512"><path d="m98.9,363.57c18.77.48,40.02,1.31,57.14,1.56,32.87-54.95,64.78-113.61,97.65-168.56,31.94,56.19,61.27,111.46,93.21,167.64,21.12-.25,44,.11,65.76.08,6.28,0,10.19-6.8,7.05-12.23-52.64-90.92-105.27-181.84-157.91-272.76-3.16-5.47-11.06-5.41-14.15.1-50.47,89.98-105.19,182.1-155.64,272.07-3,5.35.77,11.96,6.9,12.11Z" style="fill:#559779;"/><path d="m218.47,295.39h68.51c5.02,0,8.12,5.46,5.53,9.76-11.12,18.51-22.61,38.16-33.72,56.63-2.47,4.11-8.4,4.18-10.98.13-11.73-18.47-23.07-38.11-34.79-56.63-2.72-4.3.36-9.9,5.44-9.9Z" style="fill:#559779;"/><path d="m104.65,435.99h-9.29c-1.77,0-2.75-1.37-2.17-3.04l16.41-47.55c.96-2.78,3.57-4.64,6.51-4.64h5.23c2.94,0,5.55,1.86,6.51,4.64l16.39,47.55c.58,1.67-.4,3.04-2.17,3.04h-9.29l-13.84-42.61h-.43l-13.86,42.61Z" style="fill:#fff;"/><path d="m186.04,380.76h9.38c1.27,0,2.3,1.03,2.3,2.3v33.57c0,4.03-.96,7.55-2.87,10.57-1.92,3.02-4.59,5.37-8.02,7.05-3.43,1.68-7.43,2.52-12,2.52s-8.59-.84-12.03-2.52c-3.43-1.68-6.1-4.03-8.01-7.05-1.91-3.02-2.86-6.54-2.86-10.57v-33.57c0-1.27,1.03-2.3,2.3-2.3h9.38v34.87c0,2.1.46,3.97,1.39,5.61.93,1.64,2.23,2.92,3.92,3.86,1.69.93,3.66,1.4,5.91,1.4s4.24-.47,5.92-1.4,2.98-2.22,3.91-3.86c.93-1.64,1.39-3.51,1.39-5.61v-34.87Z" style="fill:#fff;"/><path d="m218.27,380.76l11.14,18.82h.43l11.19-18.82h9.1c1.79,0,2.89,1.96,1.96,3.49l-14.72,24.13,15.04,24.11c.95,1.53-.15,3.51-1.95,3.51h-9.29l-11.33-18.85h-.43l-11.33,18.85h-9.23c-1.8,0-2.9-1.98-1.95-3.51l15.09-24.1-14.82-24.12c-.94-1.53.16-3.5,1.96-3.5h9.14Z" style="fill:#fff;"/><path d="m261.58,434.85v-52.94c0-.63.51-1.15,1.15-1.15h36.07v8.48c0,.63-.51,1.15-1.15,1.15h-24.39v13.16h23.62v9.63h-23.62v13.19h25.65v8.48c0,.63-.51,1.15-1.15,1.15h-35.03c-.63,0-1.15-.51-1.15-1.15Z" style="fill:#fff;"/><path d="m338.06,396.65c-.22-2.18-1.14-3.87-2.78-5.07-1.64-1.2-3.86-1.81-6.66-1.81-1.91,0-3.52.27-4.83.8-1.31.53-2.32,1.26-3.01,2.2-.69.93-1.04,2-1.04,3.18-.04.99.17,1.85.63,2.59s1.09,1.37,1.9,1.9,1.74.99,2.8,1.38c1.06.39,2.19.72,3.4.98l4.96,1.19c2.41.54,4.62,1.26,6.63,2.16,2.01.9,3.76,2,5.23,3.32s2.62,2.86,3.44,4.64,1.24,3.82,1.25,6.12c-.02,3.38-.88,6.31-2.58,8.78-1.7,2.47-4.14,4.39-7.34,5.74-3.19,1.36-7.03,2.04-11.53,2.04s-8.34-.68-11.64-2.05-5.87-3.39-7.71-6.08c-1.65-2.41-2.6-5.34-2.84-8.79-.05-.65.49-1.2,1.15-1.2h10.1c.13,1.85.66,3.39,1.6,4.63s2.21,2.16,3.8,2.78c1.59.62,3.39.93,5.41.93s3.7-.29,5.16-.86c1.47-.58,2.6-1.38,3.41-2.4.81-1.03,1.21-2.2,1.21-3.53,0-1.24-.36-2.28-1.09-3.13-.73-.85-1.79-1.56-3.18-2.16s-3.1-1.13-5.11-1.62l-6.01-1.51c-4.66-1.13-8.33-2.9-11.03-5.31-2.7-2.41-4.04-5.65-4.02-9.74-.02-3.34.88-6.27,2.68-8.77,1.81-2.5,4.29-4.45,7.46-5.85s6.76-2.1,10.79-2.1,7.68.7,10.75,2.1,5.45,3.35,7.16,5.85c1.5,2.19,2.36,4.68,2.59,7.48.05.65-.49,1.2-1.15,1.2h-9.99Z" style="fill:#fff;"/><path d="m369.51,381.91v52.94c0,.63-.51,1.15-1.15,1.15h-9.38c-.63,0-1.15-.51-1.15-1.15v-52.94c0-.63.51-1.15,1.15-1.15h9.38c.63,0,1.15.51,1.15,1.15Z" style="fill:#fff;"/><path d="m409.1,396.65c-.22-2.18-1.14-3.87-2.78-5.07-1.64-1.2-3.86-1.81-6.66-1.81-1.91,0-3.52.27-4.83.8-1.31.53-2.32,1.26-3.01,2.2-.69.93-1.04,2-1.04,3.18-.04.99.17,1.85.63,2.59s1.09,1.37,1.9,1.9,1.74.99,2.8,1.38c1.06.39,2.19.72,3.4.98l4.96,1.19c2.41.54,4.62,1.26,6.63,2.16,2.01.9,3.76,2,5.23,3.32s2.62,2.86,3.44,4.64,1.24,3.82,1.25,6.12c-.02,3.38-.88,6.31-2.58,8.78-1.7,2.47-4.14,4.39-7.34,5.74-3.19,1.36-7.03,2.04-11.53,2.04s-8.34-.68-11.64-2.05-5.87-3.39-7.71-6.08c-1.65-2.41-2.6-5.34-2.84-8.79-.05-.65.49-1.2,1.15-1.2h10.1c.13,1.85.66,3.39,1.6,4.63s2.21,2.16,3.8,2.78c1.59.62,3.39.93,5.41.93s3.7-.29,5.16-.86c1.47-.58,2.6-1.38,3.41-2.4.81-1.03,1.21-2.2,1.21-3.53,0-1.24-.36-2.28-1.09-3.13-.73-.85-1.79-1.56-3.18-2.16s-3.1-1.13-5.11-1.62l-6.01-1.51c-4.66-1.13-8.33-2.9-11.03-5.31-2.7-2.41-4.04-5.65-4.02-9.74-.02-3.34.88-6.27,2.68-8.77,1.81-2.5,4.29-4.45,7.46-5.85,3.16-1.4,6.76-2.1,10.79-2.1s7.68.7,10.75,2.1,5.45,3.35,7.16,5.85c1.5,2.19,2.36,4.68,2.59,7.48.05.65-.49,1.2-1.15,1.2h-9.99Z" style="fill:#fff;"/></svg>