<?xml version="1.0" encoding="UTF-8"?><svg id="Layer_1" xmlns="http://www.w3.org/2000/svg" viewBox="0 0 1004 506.67"><path d="m182.1,341.54c11.67.3,24.89.81,35.53.97,20.44-34.17,40.29-70.65,60.73-104.82,19.86,34.94,38.1,69.31,57.96,104.25,13.13-.16,27.36.07,40.89.05,3.9,0,6.34-4.23,4.38-7.61-32.73-56.54-65.47-113.08-98.2-169.63-1.97-3.4-6.88-3.37-8.8.06-31.39,55.95-65.41,113.25-96.79,169.19-1.86,3.32.48,7.43,4.29,7.53Z" style="fill:#559779;"/><path d="m256.46,299.14h42.6c3.12,0,5.05,3.4,3.44,6.07-6.91,11.51-14.06,23.73-20.97,35.22-1.54,2.56-5.23,2.6-6.83.08-7.3-11.49-14.35-23.7-21.63-35.22-1.69-2.67.22-6.15,3.39-6.15Z" style="fill:#559779;"/><path d="m428.18,288.53h-12.18c-2.32,0-3.6-1.8-2.84-3.99l21.51-62.3c1.26-3.64,4.68-6.08,8.53-6.08h6.85c3.85,0,7.28,2.44,8.53,6.08l21.47,62.3c.76,2.19-.52,3.99-2.84,3.99h-12.18l-18.13-55.83h-.57l-18.16,55.83Z" style="fill:#fff;"/><path d="m534.82,216.16h12.29c1.66,0,3.01,1.35,3.01,3.01v43.99c0,5.28-1.25,9.89-3.76,13.85-2.51,3.96-6.01,7.04-10.51,9.24-4.5,2.2-9.74,3.3-15.72,3.3s-11.26-1.1-15.76-3.3c-4.5-2.2-8-5.28-10.49-9.24-2.5-3.96-3.75-8.57-3.75-13.85v-43.99c0-1.66,1.35-3.01,3.01-3.01h12.29v45.69c0,2.76.61,5.21,1.82,7.35,1.21,2.14,2.93,3.83,5.14,5.05,2.21,1.22,4.79,1.84,7.74,1.84s5.55-.61,7.76-1.84,3.91-2.91,5.12-5.05c1.21-2.14,1.82-4.59,1.82-7.35v-45.69Z" style="fill:#fff;"/><path d="m577.04,216.16l14.59,24.66h.57l14.66-24.66h11.92c2.35,0,3.79,2.57,2.57,4.57l-19.29,31.61,19.71,31.58c1.25,2-.19,4.6-2.55,4.6h-12.17l-14.84-24.7h-.57l-14.84,24.7h-12.09c-2.36,0-3.8-2.6-2.55-4.6l19.77-31.58-19.41-31.6c-1.23-2,.21-4.58,2.56-4.58h11.97Z" style="fill:#fff;"/><path d="m633.79,287.02v-69.36c0-.83.67-1.5,1.5-1.5h47.26v11.11c0,.83-.67,1.5-1.5,1.5h-31.96v17.24h30.95v12.61h-30.95v17.28h33.6v11.11c0,.83-.67,1.5-1.5,1.5h-45.9c-.83,0-1.5-.67-1.5-1.5Z" style="fill:#fff;"/><path d="m734,236.97c-.28-2.85-1.5-5.07-3.64-6.64-2.14-1.58-5.05-2.37-8.73-2.37-2.5,0-4.61.35-6.32,1.04-1.72.69-3.03,1.66-3.94,2.88-.91,1.22-1.36,2.61-1.36,4.17-.05,1.3.23,2.43.83,3.39s1.43,1.8,2.49,2.49,2.29,1.3,3.67,1.8c1.39.51,2.87.94,4.45,1.29l6.5,1.56c3.16.71,6.05,1.65,8.69,2.83,2.64,1.18,4.92,2.63,6.85,4.35s3.43,3.75,4.51,6.08,1.62,5.01,1.64,8.02c-.02,4.43-1.15,8.26-3.37,11.5-2.23,3.24-5.43,5.75-9.61,7.53-4.18,1.78-9.22,2.67-15.11,2.67s-10.93-.9-15.25-2.69c-4.32-1.79-7.69-4.45-10.11-7.97-2.17-3.16-3.41-7-3.73-11.51-.06-.86.65-1.58,1.51-1.58h13.23c.16,2.43.87,4.45,2.1,6.06s2.9,2.83,4.98,3.64c2.08.81,4.45,1.22,7.08,1.22s4.85-.38,6.77-1.13c1.92-.75,3.41-1.8,4.47-3.14,1.06-1.34,1.59-2.89,1.59-4.63,0-1.63-.48-2.99-1.43-4.1-.95-1.11-2.34-2.05-4.17-2.83s-4.06-1.48-6.7-2.12l-7.88-1.98c-6.1-1.48-10.92-3.8-14.45-6.96-3.53-3.16-5.29-7.41-5.27-12.76-.02-4.38,1.15-8.21,3.52-11.48,2.37-3.27,5.62-5.83,9.77-7.67s8.86-2.76,14.13-2.76,10.06.92,14.08,2.76,7.14,4.39,9.38,7.67c1.96,2.87,3.09,6.14,3.39,9.8.07.86-.64,1.58-1.5,1.58h-13.09Z" style="fill:#fff;"/><path d="m775.2,217.66v69.36c0,.83-.67,1.5-1.5,1.5h-12.29c-.83,0-1.5-.67-1.5-1.5v-69.36c0-.83.67-1.5,1.5-1.5h12.29c.83,0,1.5.67,1.5,1.5Z" style="fill:#fff;"/><path d="m827.07,236.97c-.28-2.85-1.5-5.07-3.64-6.64-2.14-1.58-5.05-2.37-8.73-2.37-2.5,0-4.61.35-6.32,1.04-1.72.69-3.03,1.66-3.94,2.88-.91,1.22-1.36,2.61-1.36,4.17-.05,1.3.23,2.43.83,3.39s1.43,1.8,2.49,2.49,2.29,1.3,3.67,1.8c1.39.51,2.87.94,4.45,1.29l6.5,1.56c3.16.71,6.05,1.65,8.69,2.83,2.64,1.18,4.92,2.63,6.85,4.35s3.43,3.75,4.51,6.08,1.62,5.01,1.64,8.02c-.02,4.43-1.15,8.26-3.37,11.5-2.23,3.24-5.43,5.75-9.61,7.53-4.18,1.78-9.22,2.67-15.11,2.67s-10.93-.9-15.25-2.69-7.69-4.45-10.11-7.97c-2.17-3.16-3.41-7-3.73-11.51-.06-.86.65-1.58,1.51-1.58h13.23c.16,2.43.87,4.45,2.1,6.06s2.9,2.83,4.98,3.64c2.08.81,4.45,1.22,7.08,1.22s4.85-.38,6.77-1.13c1.92-.75,3.41-1.8,4.47-3.14,1.06-1.34,1.59-2.89,1.59-4.63,0-1.63-.48-2.99-1.43-4.1-.95-1.11-2.34-2.05-4.17-2.83s-4.06-1.48-6.7-2.12l-7.88-1.98c-6.1-1.48-10.92-3.8-14.45-6.96-3.53-3.16-5.29-7.41-5.27-12.76-.02-4.38,1.15-8.21,3.52-11.48,2.37-3.27,5.62-5.83,9.77-7.67s8.86-2.76,14.13-2.76,10.06.92,14.08,2.76,7.14,4.39,9.38,7.67c1.96,2.87,3.09,6.14,3.39,9.8.07.86-.64,1.58-1.5,1.58h-13.09Z" style="fill:#fff;"/></svg>