<?xml version="1.0" encoding="UTF-8"?><svg id="Layer_1" xmlns="http://www.w3.org/2000/svg" viewBox="0 0 512 509.33"><path d="m99.34,397.13c18.77.48,40.02,1.31,57.14,1.56,32.87-54.95,64.78-113.61,97.65-168.56,31.94,56.19,61.27,111.46,93.21,167.64,21.12-.25,44,.11,65.76.08,6.28,0,10.19-6.8,7.05-12.23-52.64-90.92-105.27-181.84-157.91-272.76-3.16-5.47-11.06-5.41-14.15.1-50.47,89.98-105.19,182.1-155.64,272.07-3,5.35.77,11.96,6.9,12.11Z" style="fill:#559779;"/><path d="m218.9,328.95h68.51c5.02,0,8.12,5.46,5.53,9.76-11.12,18.51-22.61,38.16-33.72,56.63-2.47,4.11-8.4,4.18-10.98.13-11.73-18.47-23.07-38.11-34.79-56.63-2.72-4.3.36-9.9,5.44-9.9Z" style="fill:#559779;"/></svg>